# xmcd CD database file
#
# Track frame offsets:
#	150
#	15997
#	33272
#	50054
#	64677
#	80394
#	94342
#	110974
#	124667
#	138192
#	152180
#	166574
#
# Disc length: 2430 seconds
#
# Revision: 0
# Processed by: cddbd v1.5.2PL0 Copyright (c) Steve Scherf et al.
# Submitted via: CDex 1.51
#
DISCID=94097c0c
DTITLE=Hell's Kitchen - Dress to dig
DYEAR=2011
DGENRE=Blues
TTITLE0=A good end
TTITLE1=Teachers
TTITLE2=The helper
TTITLE3=Leave and go home
TTITLE4=Wait
TTITLE5=Never being able
TTITLE6=My heart's beating too slow
TTITLE7=Right away
TTITLE8=Vilain Docteur
TTITLE9=Born lover
TTITLE10=You don't give up
TTITLE11=From the start
EXTD=YEAR: 2011
EXTT0=
EXTT1=
EXTT2=
EXTT3=
EXTT4=
EXTT5=
EXTT6=
EXTT7=
EXTT8=
EXTT9=
EXTT10=
EXTT11=
PLAYORDER=
